<?xml version="1.0" encoding="UTF-8" standalone="no"?>
<!-- (c) ammap.com | SVG weather icons -->

<svg
   width="150"
   height="131.9817"
   version="1.1"
   id="svg3"
   sodipodi:docname="3.svg"
   inkscape:version="1.4 (e7c3feb100, 2024-10-09)"
   xmlns:inkscape="http://www.inkscape.org/namespaces/inkscape"
   xmlns:sodipodi="http://sodipodi.sourceforge.net/DTD/sodipodi-0.dtd"
   xmlns="http://www.w3.org/2000/svg"
   xmlns:svg="http://www.w3.org/2000/svg">
  <sodipodi:namedview
     id="namedview3"
     pagecolor="#ffffff"
     bordercolor="#000000"
     borderopacity="0.25"
     inkscape:showpageshadow="2"
     inkscape:pageopacity="0.0"
     inkscape:pagecheckerboard="0"
     inkscape:deskcolor="#d1d1d1"
     inkscape:zoom="3.0208333"
     inkscape:cx="-29.793103"
     inkscape:cy="6.2896552"
     inkscape:window-width="2162"
     inkscape:window-height="1209"
     inkscape:window-x="26"
     inkscape:window-y="23"
     inkscape:window-maximized="0"
     inkscape:current-layer="g2" />
  <defs
     id="defs2" />
  <g
     id="cloudy"
     transform="translate(23)"
     filter="url(#blur)">
    <g
       class="am-weather-cloud-1"
       id="g2"
       transform="matrix(4.5731707,0,0,4.5731707,-2.4207317,-20.762195)"
       style="stroke:#000000;stroke-opacity:1;fill:#ffffff;fill-opacity:1">
      <path
         transform="matrix(0.6,0,0,0.6,-10,-8)"
         d="m 47.7,35.4 c 0,-4.6 -3.7,-8.2 -8.2,-8.2 -1,0 -1.9,0.2 -2.8,0.5 -0.3,-3.4 -3.1,-6.2 -6.6,-6.2 -3.7,0 -6.7,3 -6.7,6.7 0,0.8 0.2,1.6 0.4,2.3 -0.3,-0.1 -0.7,-0.1 -1,-0.1 -3.7,0 -6.7,3 -6.7,6.7 0,3.6 2.9,6.6 6.5,6.7 h 17.2 c 4.4,-0.5 7.9,-4 7.9,-8.4 z"
         fill="#91c0f8"
         stroke="#ffffff"
         stroke-linejoin="round"
         stroke-width="1.2"
         id="path2"
         style="stroke:#000000;stroke-opacity:1;fill:#ffffff;fill-opacity:1;stroke-width:1.09333334;stroke-dasharray:none" />
    </g>
    <g
       class="am-weather-cloud-3"
       id="g3"
       transform="matrix(4.5731707,0,0,4.5731707,-2.4207317,-20.762195)">
      <path
         transform="translate(-20,-11)"
         d="m 47.7,35.4 c 0,-4.6 -3.7,-8.2 -8.2,-8.2 -1,0 -1.9,0.2 -2.8,0.5 -0.3,-3.4 -3.1,-6.2 -6.6,-6.2 -3.7,0 -6.7,3 -6.7,6.7 0,0.8 0.2,1.6 0.4,2.3 -0.3,-0.1 -0.7,-0.1 -1,-0.1 -3.7,0 -6.7,3 -6.7,6.7 0,3.6 2.9,6.6 6.5,6.7 h 17.2 c 4.4,-0.5 7.9,-4 7.9,-8.4 z"
         fill="#57a0ee"
         stroke="#ffffff"
         stroke-linejoin="round"
         stroke-width="1.2"
         id="path3"
         style="fill:#ffffff;fill-opacity:1;stroke:#000000;stroke-opacity:1;stroke-width:0.87466667;stroke-dasharray:none" />
    </g>
  </g>
</svg>
