<?xml version="1.0" encoding="UTF-8" standalone="no"?>
<!-- (c) ammap.com | SVG weather icons -->

<svg
   width="150"
   height="150"
   version="1.1"
   id="svg5"
   sodipodi:docname="51.svg"
   inkscape:version="1.4 (e7c3feb100, 2024-10-09)"
   xmlns:inkscape="http://www.inkscape.org/namespaces/inkscape"
   xmlns:sodipodi="http://sodipodi.sourceforge.net/DTD/sodipodi-0.dtd"
   xmlns="http://www.w3.org/2000/svg"
   xmlns:svg="http://www.w3.org/2000/svg">
  <sodipodi:namedview
     id="namedview5"
     pagecolor="#ffffff"
     bordercolor="#000000"
     borderopacity="0.25"
     inkscape:showpageshadow="2"
     inkscape:pageopacity="0.0"
     inkscape:pagecheckerboard="0"
     inkscape:deskcolor="#d1d1d1"
     inkscape:zoom="5.6716565"
     inkscape:cx="75.639278"
     inkscape:cy="84.807675"
     inkscape:window-width="3440"
     inkscape:window-height="1371"
     inkscape:window-x="0"
     inkscape:window-y="0"
     inkscape:window-maximized="1"
     inkscape:current-layer="g5" />
  <defs
     id="defs2" />
  <g
     transform="translate(16,-2)"
     filter="url(#blur)"
     id="g5">
    <g
       class="am-weather-cloud-3"
       id="g2"
       transform="matrix(3.9438998,0,0,3.9438998,13.154836,-25.553332)">
      <path
         transform="translate(-20,-11)"
         d="m 47.7,35.4 c 0,-4.6 -3.7,-8.2 -8.2,-8.2 -1,0 -1.9,0.2 -2.8,0.5 -0.3,-3.4 -3.1,-6.2 -6.6,-6.2 -3.7,0 -6.7,3 -6.7,6.7 0,0.8 0.2,1.6 0.4,2.3 -0.3,-0.1 -0.7,-0.1 -1,-0.1 -3.7,0 -6.7,3 -6.7,6.7 0,3.6 2.9,6.6 6.5,6.7 h 17.2 c 4.4,-0.5 7.9,-4 7.9,-8.4 z"
         fill="#57a0ee"
         stroke="#ffffff"
         stroke-linejoin="round"
         stroke-width="1.2"
         id="path2"
         style="fill:#ffffff;fill-opacity:1;stroke:#000000;stroke-width:1.01422455;stroke-dasharray:none;stroke-opacity:1" />
    </g>
    <g
       class="am-weather-rainy-3"
       transform="matrix(3.9004099,0.62956181,-0.68774751,3.5704224,56.553704,115.97974)"
       fill="none"
       stroke="#91c0f8"
       stroke-dasharray="4, 4"
       stroke-linecap="round"
       stroke-width="2"
       id="g4"
       style="stroke:#0000ff;stroke-width:1.01422;stroke-dasharray:none;stroke-dashoffset:0;stroke-opacity:1">
      <line
         class="am-weather-rain-1"
         y2="7.5932813"
         id="line2"
         x1="-4.0947762"
         y1="0.75088465"
         x2="-4.320097"
         style="fill:none;stroke:#0000ff;stroke-width:1.05559306;stroke-dasharray:none;stroke-dashoffset:0;stroke-opacity:1;stroke-linecap:round;stroke-linejoin:miter" />
      <line
         class="am-weather-rain-2"
         y2="5.7700214"
         id="line3"
         x1="0.0018161986"
         y1="-1.0723749"
         x2="-0.22350468"
         style="fill:none;stroke:#0000ff;stroke-width:1.05559306;stroke-dasharray:none;stroke-dashoffset:0;stroke-opacity:1;stroke-linecap:round;stroke-linejoin:miter" />
      <line
         class="am-weather-rain-1"
         y2="6.5126605"
         id="line4"
         x1="4.0139132"
         y1="-0.32973579"
         x2="3.7885926"
         style="fill:none;stroke:#0000ff;stroke-width:1.05559306;stroke-dasharray:none;stroke-dashoffset:0;stroke-opacity:1;stroke-linecap:round;stroke-linejoin:miter" />
    </g>
  </g>
</svg>
